<svg xmlns:dc="http://purl.org/dc/elements/1.1/" xmlns:cc="http://creativecommons.org/ns#" xmlns:rdf="http://www.w3.org/1999/02/22-rdf-syntax-ns#" xmlns:svg="http://www.w3.org/2000/svg" xmlns="http://www.w3.org/2000/svg" xmlns:sodipodi="http://sodipodi.sourceforge.net/DTD/sodipodi-0.dtd" xmlns:inkscape="http://www.inkscape.org/namespaces/inkscape" viewBox="0 0 33.866666 42.333332500000004" version="1.1" x="0px" y="0px"><g transform="translate(0,-263.13333)"><path style="opacity:1;fill:#000000;stroke-width:0.39081201" d="m 4.797244,267.36905 c 0.06631,0.007 0.133087,0.027 0.195432,0.0619 l 2.216618,1.24641 c 0.130844,0.0741 0.223753,0.20241 0.255561,0.35269 l 1.449936,5.63603 h 20.205141 c 0.34278,0 0.59005,0.34191 0.49158,0.68057 l -4.1867,9.35981 c -0.0652,0.22384 -0.26552,0.3775 -0.49233,0.3775 0,0 -14.84863,-0.009 -14.859394,-0.009 v 7.7e-4 c -0.628068,0 -1.139505,0.52639 -1.139505,1.17357 0,0.64769 0.511437,1.17432 1.139505,1.17432 h 12.803624 c 1.42804,0 2.5902,1.19873 2.5902,2.67191 0,1.47266 -1.16216,2.67113 -2.5902,2.67113 -1.42803,0 -2.590189,-1.19847 -2.590189,-2.67113 0,-0.60853 0.20617,-1.16328 0.539689,-1.61307 h -6.531849 c 0.333534,0.44979 0.538933,1.00454 0.538933,1.61307 0,1.47266 -1.161644,2.67113 -2.590191,2.67113 -1.428547,0 -2.590192,-1.19847 -2.590192,-2.67113 0,-0.60853 0.206154,-1.16328 0.539688,-1.61307 h -0.119513 c -1.194049,0 -2.165507,-1.00179 -2.165507,-2.23316 0,-1.04987 0.708377,-1.9266 1.656637,-2.16419 L 6.511011,269.4908 4.501093,268.36065 c -0.248868,-0.14025 -0.340661,-0.4619 -0.205199,-0.71855 0.102369,-0.19209 0.302435,-0.29323 0.50135,-0.27285 z"/></g><text x="0" y="48.866666" fill="#000000" font-size="5px" font-weight="bold" font-family="'Helvetica Neue', Helvetica, Arial-Unicode, Arial, Sans-serif">Created by A H D U Y</text><text x="0" y="53.866666" fill="#000000" font-size="5px" font-weight="bold" font-family="'Helvetica Neue', Helvetica, Arial-Unicode, Arial, Sans-serif">from the Noun Project</text></svg>