<svg xmlns="http://www.w3.org/2000/svg" viewBox="0 0 33.867 42.333"><path d="M4.797 4.236a.51.51 0 01.196.062l2.216 1.246a.53.53 0 01.256.353l1.45 5.636H29.12c.343 0 .59.342.492.68l-4.187 9.36a.517.517 0 01-.493.378l-14.859-.01v.001c-.628 0-1.14.527-1.14 1.174 0 .648.512 1.174 1.14 1.174h12.804c1.428 0 2.59 1.199 2.59 2.672s-1.162 2.671-2.59 2.671-2.59-1.198-2.59-2.67c0-.61.206-1.164.54-1.614h-6.533c.334.45.54 1.005.54 1.613 0 1.473-1.162 2.671-2.59 2.671-1.43 0-2.591-1.198-2.591-2.67 0-.61.206-1.164.54-1.614h-.12c-1.194 0-2.165-1.002-2.165-2.233 0-1.05.708-1.927 1.656-2.164L6.511 6.357l-2.01-1.13a.539.539 0 01-.205-.718.51.51 0 01.501-.273z"/><text y="48.867" font-size="5" font-weight="bold" font-family="'Helvetica Neue', Helvetica, Arial-Unicode, Arial, Sans-serif">Created by A H D U Y</text><text y="53.867" font-size="5" font-weight="bold" font-family="'Helvetica Neue', Helvetica, Arial-Unicode, Arial, Sans-serif">from the Noun Project</text></svg>